<?xml version="1.0" encoding="UTF-8" standalone="no"?>
<!-- Created with Inkscape (http://www.inkscape.org/) -->

<svg
   width="210mm"
   height="297mm"
   viewBox="0 0 210 297"
   version="1.1"
   id="svg5"
   inkscape:version="1.1.2 (0a00cf5339, 2022-02-04)"
   sodipodi:docname="sovi.svg"
   inkscape:export-filename="/home/admin/Изображения/sovi.png"
   inkscape:export-xdpi="60.722675"
   inkscape:export-ydpi="60.722675"
   xmlns:inkscape="http://www.inkscape.org/namespaces/inkscape"
   xmlns:sodipodi="http://sodipodi.sourceforge.net/DTD/sodipodi-0.dtd"
   xmlns="http://www.w3.org/2000/svg"
   xmlns:svg="http://www.w3.org/2000/svg">
  <sodipodi:namedview
     id="namedview7"
     pagecolor="#ffffff"
     bordercolor="#666666"
     borderopacity="1.0"
     inkscape:pageshadow="2"
     inkscape:pageopacity="0.0"
     inkscape:pagecheckerboard="0"
     inkscape:document-units="mm"
     showgrid="false"
     inkscape:snap-smooth-nodes="true"
     inkscape:snap-intersection-paths="true"
     inkscape:snap-bbox="false"
     inkscape:bbox-nodes="false"
     inkscape:bbox-paths="false"
     inkscape:zoom="0.464887"
     inkscape:cx="358.15155"
     inkscape:cy="576.48418"
     inkscape:window-width="1451"
     inkscape:window-height="947"
     inkscape:window-x="26"
     inkscape:window-y="23"
     inkscape:window-maximized="0"
     inkscape:current-layer="layer1" />
  <defs
     id="defs2" />
  <g
     inkscape:label="Слой 1"
     inkscape:groupmode="layer"
     id="layer1">
    <path
       style="fill:#87613e;fill-opacity:1;stroke:#704e42;stroke-width:0.264583px;stroke-linecap:butt;stroke-linejoin:miter;stroke-opacity:1"
       d="m 145.61624,234.05463 c 2.06469,8.74401 15.10964,16.64678 13.36587,19.57801 -2.9731,2.00856 -9.77173,1.57884 -14.11847,1.21676 -24.42312,-2.325 -13.7485,-12.80959 0.7526,-20.79477 z"
       id="path157544-1"
       sodipodi:nodetypes="cccc" />
    <path
       style="fill:#87613e;fill-opacity:1;stroke:#724f43;stroke-width:0.264583px;stroke-linecap:butt;stroke-linejoin:miter;stroke-opacity:1"
       d="m 66.132856,235.10808 c -2.064691,8.74401 -15.109644,16.64678 -13.365873,19.57801 2.973098,2.00856 9.771727,1.57884 14.118475,1.21676 24.423108,-2.325 13.748483,-12.80959 -0.752602,-20.79477 z"
       id="path157544"
       sodipodi:nodetypes="cccc" />
    <path
       style="fill:#878787;fill-opacity:1;stroke:#808080;stroke-width:0.264583px;stroke-linecap:butt;stroke-linejoin:miter;stroke-opacity:1"
       d="m 103.70373,256.6 c -11.972235,-0.47364 -35.230947,12.23409 -41.404286,4.15804 -1.533583,-4.54842 14.032634,-11.52733 17.112313,-17.27004 2.425086,-4.52209 31.981413,10.60135 24.291973,13.112 z"
       id="path180902"
       sodipodi:nodetypes="ccsc" />
    <path
       style="fill:#878787;fill-opacity:1;stroke:#808080;stroke-width:0.264583px;stroke-linecap:butt;stroke-linejoin:miter;stroke-opacity:1"
       d="m 108.35982,256.6 c 11.97224,-0.47364 35.23094,12.23409 41.40428,4.15804 1.53358,-4.54842 -14.03263,-11.52733 -17.11231,-17.27004 -2.42508,-4.52209 -31.98141,10.60135 -24.29197,13.112 z"
       id="path180902-5"
       sodipodi:nodetypes="ccsc" />
    <path
       style="fill:#87613e;fill-opacity:1;stroke:#704e42;stroke-width:0.29766;stroke-linecap:butt;stroke-linejoin:round;stroke-miterlimit:4;stroke-dasharray:none;stroke-opacity:1;paint-order:normal"
       d="m 183.26761,154.93651 c 2.95563,19.77618 -4.83017,37.74958 -17.0706,53.84373 0.20387,-12.69866 -1.20418,-58.40681 -1.02547,-74.4302 7.1456,3.80143 16.35005,10.3348 18.09607,20.58647 z"
       id="path271955"
       sodipodi:nodetypes="cccc" />
    <path
       style="fill:#87613e;fill-opacity:1;stroke:#704e42;stroke-width:0.29766;stroke-linecap:butt;stroke-linejoin:round;stroke-miterlimit:4;stroke-dasharray:none;stroke-opacity:1;paint-order:normal"
       d="m 27.612466,155.59301 c -2.95563,19.77618 4.83017,37.74958 17.0706,53.84373 -0.20387,-12.69866 1.20418,-58.40681 1.02547,-74.4302 -7.1456,3.80143 -16.35005,10.3348 -18.09607,20.58647 z"
       id="path271955-8"
       sodipodi:nodetypes="cccc" />
    <path
       style="fill:#a67c52;stroke:#724f43;stroke-width:0.264583px;stroke-linecap:butt;stroke-linejoin:miter;stroke-opacity:1;fill-opacity:1"
       d="m 45.278452,129.33262 c -6.710244,-14.8514 -3.278758,-23.4496 2.236282,-36.879514 0.508426,-3.748993 -2.990654,-7.636938 -5.245992,-9.106368 1.870984,-0.249857 3.927422,-0.146593 5.773994,-1.305226 -4.623105,-4.147668 -8.320022,-11.019148 -9.434228,-14.862316 2.341454,1.879187 6.792711,3.486085 9.684934,3.716272 -6.083794,-6.038372 -8.19269,-14.509016 -6.56797,-21.193241 14.972747,17.909943 34.874001,27.143454 63.765748,28.100835 31.32321,-0.809808 50.68144,-12.486819 64.45328,-27.995115 0.91237,10.861581 -3.21574,17.45673 -6.85753,20.909974 4.48859,-0.07413 7.24008,-1.521797 9.7747,-3.654435 -2.28713,6.649443 -6.40117,11.767019 -9.41399,14.7517 1.89673,0.825259 3.2143,1.526789 5.76207,1.529102 -4.50117,2.92054 -4.88806,6.149908 -5.20403,9.604392 5.37632,14.83836 8.62344,19.31674 2.35145,36.56818 27.06135,55.11794 3.05467,99.76751 -57.99735,127.08314 -2.16519,0.37284 -2.45042,0.38964 -4.65609,0 C 38.086167,231.35346 19.895167,175.92203 45.278452,129.33262 Z"
       id="path2202"
       sodipodi:nodetypes="cccccccccccccccccc" />
    <path
       style="fill:#fef6e1;stroke:#724f43;stroke-width:0.264583px;stroke-linecap:butt;stroke-linejoin:miter;stroke-opacity:1;fill-opacity:1"
       d="m 63.619447,176.25824 c 2.727476,-17.26269 9.895589,-28.26992 42.284093,-29.36647 26.30781,1.00096 38.26159,8.33134 41.4848,27.90302 4.83109,24.51202 -14.74814,62.6291 -41.66503,64.49712 -25.564779,-1.35926 -45.094418,-35.90637 -42.103863,-63.03367 z"
       id="path77806"
       sodipodi:nodetypes="ccccc" />
    <path
       style="fill:#bc9079;fill-opacity:1;stroke:#bc9079;stroke-width:0.265;stroke-miterlimit:4;stroke-dasharray:none;stroke-opacity:1"
       id="path97696-5"
       d="m 90.037821,178.17438 c 2.091124,-3.26187 -1.7801,-5.50892 -4,-3 -5.56535,6.51186 -9.04425,6.59641 -15,0 -2.70129,-2.79271 -5.54406,0.24797 -4,3 6.3824,8.95229 16.85112,9.29835 23,0 z"
       sodipodi:nodetypes="ccccc" />
    <path
       style="fill:#bc9079;fill-opacity:1;stroke:#bc9079;stroke-width:0.265;stroke-miterlimit:4;stroke-dasharray:none;stroke-opacity:1"
       id="path97696-3"
       d="m 117.55536,177.7078 c 2.09112,-3.26187 -1.7801,-5.50892 -4,-3 -5.56535,6.51186 -9.04425,6.59641 -15.000009,0 -2.70129,-2.79271 -5.54406,0.24797 -4,3 6.382409,8.95229 16.851129,9.29835 23.000009,0 z"
       sodipodi:nodetypes="ccccc" />
    <path
       style="fill:#bc9079;fill-opacity:1;stroke:#bc9079;stroke-width:0.265;stroke-miterlimit:4;stroke-dasharray:none;stroke-opacity:1"
       id="path97696-2"
       d="m 144.68168,177.58079 c 2.09112,-3.26187 -1.7801,-5.50892 -4,-3 -5.56535,6.51186 -9.04425,6.59641 -15,0 -2.70129,-2.79271 -5.54406,0.24797 -4,3 6.3824,8.95229 16.85112,9.29835 23,0 z"
       sodipodi:nodetypes="ccccc" />
    <path
       style="fill:#bc9079;fill-opacity:1;stroke:#bc9079;stroke-width:0.265;stroke-miterlimit:4;stroke-dasharray:none;stroke-opacity:1"
       id="path97696-7"
       d="m 103.95727,202.74435 c 2.09112,-3.26187 -1.7801,-5.50892 -3.999991,-3 -5.565354,6.51186 -9.044254,6.59641 -15.000004,0 -2.70129,-2.79271 -5.54406,0.24797 -4,3 6.3824,8.95229 16.851119,9.29835 22.999995,0 z"
       sodipodi:nodetypes="ccccc" />
    <path
       style="fill:#bc9079;fill-opacity:1;stroke:#bc9079;stroke-width:0.265;stroke-miterlimit:4;stroke-dasharray:none;stroke-opacity:1"
       id="path97696-71"
       d="m 131.70627,202.43033 c 2.09112,-3.26187 -1.7801,-5.50892 -4,-3 -5.56535,6.51186 -9.04425,6.59641 -15,0 -2.70129,-2.79271 -5.54406,0.24797 -4,3 6.3824,8.95229 16.85112,9.29835 23,0 z"
       sodipodi:nodetypes="ccccc" />
    <g
       id="g384253">
      <ellipse
         style="fill:#87613e;fill-opacity:1;stroke:#80594c;stroke-width:0.5;stroke-miterlimit:4;stroke-dasharray:none;stroke-opacity:1"
         id="path196171-1"
         cx="134.69446"
         cy="112.30093"
         rx="24.000114"
         ry="24.001553" />
      <ellipse
         style="fill:#ffffff;fill-opacity:1;stroke:#af8778;stroke-width:0.5;stroke-miterlimit:4;stroke-dasharray:none;stroke-opacity:1"
         id="path231264-4"
         cx="134.68829"
         cy="112.4768"
         rx="18.999205"
         ry="18.999195" />
      <path
         style="opacity:1;fill:#313131;fill-opacity:1;stroke:#724f43;stroke-width:0;stroke-miterlimit:4;stroke-dasharray:none;stroke-opacity:1"
         id="path248385-0"
         sodipodi:type="arc"
         sodipodi:cx="134.78326"
         sodipodi:cy="112.49175"
         sodipodi:rx="10.749989"
         sodipodi:ry="10.749973"
         sodipodi:start="0"
         sodipodi:end="6.2553997"
         sodipodi:open="true"
         sodipodi:arc-type="arc"
         d="m 145.53325,112.49175 a 10.749989,10.749973 0 0 1 -10.67531,10.74972 10.749989,10.749973 0 0 1 -10.82363,-10.60037 10.749989,10.749973 0 0 1 10.52495,-10.89699 10.749989,10.749973 0 0 1 10.96984,10.44899" />
      <ellipse
         style="fill:#ffffff;fill-opacity:1;stroke:#af8778;stroke-width:0;stroke-miterlimit:4;stroke-dasharray:none;stroke-opacity:1"
         id="path251093-1"
         cx="137.36786"
         cy="110.47594"
         rx="4.0446329"
         ry="4.5686092" />
    </g>
    <g
       id="g384259"
       transform="translate(-1.8320993)">
      <ellipse
         style="fill:#87613e;fill-opacity:1;stroke:#80594c;stroke-width:0.5;stroke-miterlimit:4;stroke-dasharray:none;stroke-opacity:1"
         id="path196171-1-4"
         cx="79.195602"
         cy="112.02896"
         rx="24.000114"
         ry="24.001553" />
      <ellipse
         style="fill:#ffffff;fill-opacity:1;stroke:#af8778;stroke-width:0.5;stroke-miterlimit:4;stroke-dasharray:none;stroke-opacity:1"
         id="path231264-4-1"
         cx="79.189438"
         cy="112.20483"
         rx="18.999205"
         ry="18.999195" />
      <path
         style="opacity:1;fill:#313131;fill-opacity:1;stroke:#724f43;stroke-width:0;stroke-miterlimit:4;stroke-dasharray:none;stroke-opacity:1"
         id="path248385-0-3"
         sodipodi:type="arc"
         sodipodi:cx="79.284409"
         sodipodi:cy="112.21979"
         sodipodi:rx="10.749989"
         sodipodi:ry="10.749973"
         sodipodi:start="0"
         sodipodi:end="6.2553997"
         sodipodi:open="true"
         sodipodi:arc-type="arc"
         d="M 90.034397,112.21979 A 10.749989,10.749973 0 0 1 79.359082,122.9695 10.749989,10.749973 0 0 1 68.535457,112.36913 10.749989,10.749973 0 0 1 79.060404,101.47215 10.749989,10.749973 0 0 1 90.030248,111.92113" />
      <ellipse
         style="fill:#ffffff;fill-opacity:1;stroke:#af8778;stroke-width:0;stroke-miterlimit:4;stroke-dasharray:none;stroke-opacity:1"
         id="path251093-1-5"
         cx="81.869003"
         cy="110.20398"
         rx="4.0446329"
         ry="4.5686092" />
    </g>
    <path
       style="fill:#ffa400;fill-opacity:1;stroke:#724f43;stroke-width:0.264583px;stroke-linecap:butt;stroke-linejoin:miter;stroke-opacity:1"
       d="m 104.72138,154.74876 c 0.73039,1.18955 1.65026,1.34027 2.62299,-0.0825 l 9.29804,-16.78208 c 0.30525,-0.90544 0.30886,-1.25632 0.0639,-1.98007 l -8.34183,-14.27971 c -1.2642,-1.87167 -3.70772,-1.78637 -4.78451,-0.11518 l -8.053573,14.22035 c -0.35357,1.06906 -0.29257,1.1624 0.008,2.0479 z"
       id="path366650"
       sodipodi:nodetypes="ccccccccc" />
  </g>
</svg>
